Total.Recall.2012.Extended.DC.BDRip.DivX.AC3-Atilla82.avi



Total Recall (2012) 
- Extended Directors Cut -

 
http://www.imdb.com/title/tt1386703/


A factory worker, Douglas Quaid, begins to suspect that
he is a spy after visiting Rekall - a company that provides
its clients with implanted fake memories of a life they
would like to have led - goes wrong and he finds himself on the run.





Subs (VobSub) : English / Chinese / Estonian / Indonesian / Korean / Lithuanian / Russian / Thai / Ukranian


3 audio streams: AC3 5.1 English, Stereo English MP3, Director Commentary MP3





General
Complete name : Total.Recall.2012.Extended.DC.BDRip.DivX.AC3-Atilla82.avi
Format : AVI
Format/Info : Audio Video Interleave
File size : 1.67 GiB
Duration : 2h 10mn
Overall bit rate : 1 835 Kbps
Writing application : VirtualDubMod 1.5.10.2 (build 2540/release)
Writing library : VirtualDubMod build 2540/release

Video
ID : 0
Format : MPEG-4 Visual
Format settings, BVOP : 1
Format settings, QPel : No
Format settings, GMC : No warppoints
Format settings, Matrix : Default (H.263)
Codec ID : DX50
Codec ID/Hint : DivX 5
Duration : 2h 10mn
Bit rate : 1 160 Kbps
Width : 720 pixels
Height : 300 pixels
Display aspect ratio : 2.40:1
Frame rate : 23.976 fps
Color space : YUV
Chroma subsampling : 4:2:0
Bit depth : 8 bits
Scan type : Progressive
Compression mode : Lossy
Bits/(Pixel*Frame) : 0.224
Stream size : 1.06 GiB (63%)
Writing library : DivX 3330n

Audio #1
ID : 1
Format : AC-3
Format/Info : Audio Coding 3
Mode extension : CM (complete main)
Format settings, Endianness : Big
Codec ID : 2000
Duration : 2h 10mn
Bit rate mode : Constant
Bit rate : 384 Kbps
Channel(s) : 6 channels
Channel positions : Front: L C R, Side: L R, LFE
Sampling rate : 48.0 KHz
Bit depth : 16 bits
Compression mode : Lossy
Stream size : 358 MiB (21%)
Alignment : Split accross interleaves
Interleave, duration : 42 ms (1.00 video frame)
Interleave, preload duration : 500 ms
Language : English

Audio #2
ID : 2
Format : MPEG Audio
Format version : Version 1
Format profile : Layer 3
Codec ID : 55
Codec ID/Hint : MP3
Description : English audio (Stereo)
Duration : 2h 10mn
Bit rate mode : Constant
Bit rate : 192 Kbps
Channel(s) : 2 channels
Sampling rate : 48.0 KHz
Compression mode : Lossy
Stream size : 179 MiB (10%)
Alignment : Aligned on interleaves
Interleave, duration : 42 ms (1.00 video frame)
Interleave, preload duration : 504 ms

Audio #3
ID : 3
Format : MPEG Audio
Format version : Version 1
Format profile : Layer 3
Codec ID : 55
Codec ID/Hint : MP3
Description : English Directors Commentary
Duration : 2h 10mn
Bit rate mode : Constant
Bit rate : 80.0 Kbps
Channel(s) : 2 channels
Sampling rate : 48.0 KHz
Compression mode : Lossy
Stream size : 74.5 MiB (4%)
Alignment : Aligned on interleaves
Interleave, duration : 42 ms (1.00 video frame)
Interleave, preload duration : 504 ms
Writing library : LAME3.98.4



SCREENSHOTS 
http://www.pohrani.com/f/3T/13F/gVRB9xG/screenshots.jpg





